<?xml version="1.0" encoding="UTF-8" standalone="no"?>
<!-- Created with Inkscape (http://www.inkscape.org/) -->

<svg
   xmlns:dc="http://purl.org/dc/elements/1.1/"
   xmlns:cc="http://creativecommons.org/ns#"
   xmlns:rdf="http://www.w3.org/1999/02/22-rdf-syntax-ns#"
   xmlns:svg="http://www.w3.org/2000/svg"
   xmlns="http://www.w3.org/2000/svg"
   xmlns:sodipodi="http://sodipodi.sourceforge.net/DTD/sodipodi-0.dtd"
   xmlns:inkscape="http://www.inkscape.org/namespaces/inkscape"
   id="svg2"
   version="1.1"
   inkscape:version="0.47 r22583"
   width="10.4084"
   height="7.1392498"
   xml:space="preserve"
   sodipodi:docname="bullet_1.svg"><metadata
     id="metadata8"><rdf:RDF><cc:Work
         rdf:about=""><dc:format>image/svg+xml</dc:format><dc:type
           rdf:resource="http://purl.org/dc/dcmitype/StillImage" /><dc:title></dc:title></cc:Work></rdf:RDF></metadata><defs
     id="defs6"><inkscape:perspective
       sodipodi:type="inkscape:persp3d"
       inkscape:vp_x="0 : 0.5 : 1"
       inkscape:vp_y="0 : 1000 : 0"
       inkscape:vp_z="1 : 0.5 : 1"
       inkscape:persp3d-origin="0.5 : 0.33333333 : 1"
       id="perspective10" /></defs><sodipodi:namedview
     pagecolor="#ffffff"
     bordercolor="#666666"
     borderopacity="1"
     objecttolerance="10"
     gridtolerance="10"
     guidetolerance="10"
     inkscape:pageopacity="0"
     inkscape:pageshadow="2"
     inkscape:window-width="1136"
     inkscape:window-height="638"
     id="namedview4"
     showgrid="false"
     inkscape:zoom="32.211306"
     inkscape:cx="5.2296252"
     inkscape:cy="3.50691"
     inkscape:window-x="447"
     inkscape:window-y="396"
     inkscape:window-maximized="0"
     inkscape:current-layer="g12" /><g
     id="g12"
     inkscape:groupmode="layer"
     inkscape:label="bullet_1"
     transform="matrix(1.25,0,0,-1.25,3.569625,3.569625)"><g
       id="g14"><g
         id="g16" /><g
         id="g18" /><g
         id="g20"><g
           id="g22"><g
             id="g24"><path
               d="m 0.09962,2.65645 2.45719,0 C 2.6121,2.65645 2.6878,2.62509 2.7269,2.586 L 5.24246,0.07043 c 0.03908,-0.03907 0.03908,-0.10179 0,-0.14086 L 2.7269,-2.586 C 2.6878,-2.62509 2.6121,-2.65645 2.55681,-2.65645 l -2.45719,0 c -0.05528,0 -0.14396,0 -0.19924,0 l -2.45719,0 c -0.05529,0 -0.09964,0.04435 -0.09964,0.09964 l 0,2.45719 c 0,0.05528 0,0.14396 0,0.19924 l 0,2.45719 c 0,0.05529 0.04435,0.09964 0.09964,0.09964 l 2.45719,0 c 0.05528,0 0.14396,0 0.19924,0 z"
               style="fill:#1e90ff;fill-opacity:1;fill-rule:nonzero;stroke:#0f4880;stroke-width:0.3985;stroke-linecap:butt;stroke-linejoin:miter;stroke-miterlimit:10;stroke-opacity:1;stroke-dasharray:none"
               id="path26" /></g><g
             id="g28"><g
               id="g30" /></g></g></g><g
         id="g32" /></g></g></svg>